<?xml version="1.0" standalone="no"?>
<!DOCTYPE svg PUBLIC "-//W3C//DTD SVG 20010904//EN"
 "http://www.w3.org/TR/2001/REC-SVG-20010904/DTD/svg10.dtd">
<svg version="1.0" xmlns="http://www.w3.org/2000/svg"
 width="418.000000pt" height="418.000000pt" viewBox="0 0 418.000000 418.000000"
 preserveAspectRatio="xMidYMid meet">
<metadata>
Created by potrace 1.14, written by Peter Selinger 2001-2017
</metadata>
<g transform="translate(0.000000,418.000000) scale(0.100000,-0.100000)"
fill="#000000" stroke="none">
<path d="M1857 4167 c4 -6 -4 -7 -21 -3 -15 4 -26 2 -26 -4 0 -6 -11 -8 -25
-6 -14 3 -31 -1 -37 -8 -7 -7 -20 -11 -29 -9 -9 3 -53 -7 -98 -20 -44 -14 -81
-23 -81 -20 0 2 -7 -3 -16 -12 -9 -9 -23 -14 -31 -11 -7 3 -16 -1 -19 -9 -4
-8 -10 -13 -14 -10 -4 3 -23 -2 -41 -11 -89 -42 -139 -70 -139 -77 0 -5 -4 -6
-9 -2 -5 3 -16 -1 -24 -9 -8 -8 -17 -12 -21 -9 -3 4 -6 2 -6 -4 0 -6 -11 -14
-25 -17 -14 -4 -23 -11 -20 -16 3 -5 -6 -12 -20 -16 -14 -3 -25 -9 -25 -13 0
-3 -23 -21 -50 -40 -28 -19 -50 -38 -50 -42 0 -4 -9 -11 -20 -14 -11 -4 -18
-11 -15 -16 4 -5 1 -9 -4 -9 -6 0 -40 -29 -76 -65 -35 -36 -62 -65 -59 -65 3
0 -6 -11 -20 -24 -15 -13 -26 -27 -26 -31 0 -4 -8 -15 -17 -24 -28 -25 -88
-115 -72 -107 8 4 5 0 -6 -9 -11 -9 -19 -21 -18 -26 2 -5 -2 -9 -7 -9 -6 0
-10 -7 -10 -15 0 -8 -5 -15 -11 -15 -5 0 -8 -4 -4 -9 3 -6 -3 -14 -12 -20 -10
-5 -17 -13 -15 -18 3 -9 -29 -75 -41 -84 -5 -3 -8 -8 -6 -10 4 -8 -25 -78 -31
-74 -4 2 -6 -6 -5 -18 1 -12 -2 -25 -7 -28 -5 -3 -10 -16 -11 -27 -1 -12 -4
-22 -8 -22 -4 0 -6 -8 -4 -17 1 -10 -1 -22 -4 -28 -4 -5 -13 -23 -19 -38 -10
-23 -10 -27 0 -21 9 6 9 3 -1 -9 -7 -9 -10 -17 -6 -17 4 0 3 -6 -2 -12 -6 -7
-9 -21 -8 -30 2 -10 0 -18 -5 -18 -5 0 -7 -11 -6 -25 2 -14 -3 -36 -10 -50 -7
-14 -9 -23 -4 -20 14 9 12 -9 -2 -24 -11 -11 -10 -12 2 -6 12 7 13 6 3 -6 -16
-20 -18 -369 -2 -369 8 0 8 -4 -1 -15 -7 -8 -9 -15 -4 -15 5 0 10 -23 12 -52
2 -29 6 -57 10 -62 8 -13 11 -29 14 -73 2 -18 6 -33 11 -33 4 0 7 -10 7 -23 0
-13 6 -29 12 -36 11 -11 10 -12 -2 -6 -12 7 -13 6 -4 -6 10 -12 51 -117 57
-144 1 -5 8 -16 15 -23 7 -8 10 -17 7 -22 -3 -5 -2 -10 2 -12 11 -4 49 -80 45
-90 -1 -4 3 -8 9 -8 5 0 7 -5 4 -10 -3 -6 -2 -10 4 -10 6 0 18 -17 28 -37 9
-21 25 -47 35 -57 10 -11 18 -23 18 -27 0 -8 29 -44 67 -85 12 -13 19 -24 16
-24 -4 0 9 -13 27 -30 18 -16 31 -30 27 -30 -3 0 5 -11 19 -25 14 -14 29 -25
35 -25 6 0 8 -4 5 -8 -2 -4 4 -13 14 -20 12 -7 21 -8 25 -2 4 6 10 8 14 6 4
-3 8 1 8 9 0 8 -6 15 -14 15 -7 0 -13 3 -13 8 0 4 -26 35 -58 69 -31 34 -66
74 -77 89 -11 16 -28 36 -38 46 -9 10 -14 18 -11 18 3 0 -1 7 -8 15 -30 34
-38 45 -31 45 4 0 -2 7 -13 15 -10 8 -15 15 -11 15 5 0 -1 13 -12 29 -12 16
-21 34 -21 40 0 6 -3 11 -7 11 -5 0 -19 27 -33 60 -14 33 -29 60 -33 60 -5 0
-6 4 -2 9 3 5 1 12 -4 16 -6 3 -8 12 -4 20 3 8 0 15 -7 15 -7 0 -10 7 -6 16 3
8 2 13 -3 9 -5 -3 -12 13 -16 35 -4 22 -10 40 -15 40 -5 0 -7 12 -5 26 1 15
-3 28 -11 31 -8 3 -14 9 -14 15 0 5 5 6 11 2 7 -4 7 1 -1 16 -6 12 -9 28 -6
36 3 8 2 13 -3 10 -5 -3 -12 1 -15 10 -4 9 -2 13 5 8 8 -4 8 -1 0 13 -5 11
-10 28 -10 39 0 10 -3 35 -6 54 -10 55 -13 393 -4 411 6 13 11 40 21 137 1 6
4 12 7 12 3 0 7 11 8 25 4 45 6 55 14 55 4 0 6 8 4 18 -1 9 1 22 5 27 9 12 24
67 22 78 -1 4 3 7 8 7 6 0 10 6 9 13 -3 20 22 77 34 77 6 0 7 3 4 6 -3 4 -1
16 5 28 7 11 13 27 14 35 2 8 7 17 12 20 4 3 21 32 37 64 16 31 33 57 37 57 4
0 8 7 8 15 0 8 5 15 10 15 6 0 10 7 10 15 0 8 5 15 10 15 6 0 10 5 10 10 0 10
5 16 58 75 12 14 19 25 15 25 -4 0 16 22 44 49 28 27 49 52 45 55 -3 3 -1 6 5
6 5 0 33 22 61 49 29 28 52 47 52 43 0 -4 6 0 13 8 17 21 123 99 138 102 7 2
25 13 39 26 13 12 30 22 37 22 6 0 19 7 27 16 9 8 16 13 16 9 0 -3 13 3 29 14
15 11 31 18 35 14 3 -3 6 -1 6 5 0 7 3 11 8 10 4 -1 20 4 35 10 16 7 33 12 38
12 5 0 9 5 9 12 0 6 3 8 7 5 3 -4 13 -1 21 6 13 10 14 9 8 -2 -6 -8 0 -7 18 4
14 10 26 13 26 9 0 -5 4 -4 8 3 4 7 22 13 40 15 18 1 32 5 32 8 0 4 6 7 13 8
6 1 23 3 37 5 14 1 31 6 37 10 7 4 34 10 60 12 27 2 48 4 48 5 0 1 12 3 28 4
15 2 30 6 34 9 3 4 12 2 20 -4 7 -6 13 -7 13 -2 0 7 269 11 278 3 1 -1 14 -2
30 -3 15 0 30 -5 34 -11 5 -7 8 -7 8 2 0 10 5 10 21 1 12 -6 30 -9 40 -6 10 3
22 1 25 -5 3 -5 12 -7 20 -4 8 3 14 2 14 -3 0 -5 6 -9 13 -8 37 1 68 -4 63
-11 -2 -4 9 -9 26 -10 17 -1 36 -6 42 -9 11 -8 32 -13 54 -15 6 -1 12 -5 12
-10 0 -4 9 -8 19 -8 11 0 23 -5 26 -11 4 -6 13 -8 20 -5 8 3 15 2 17 -2 4 -10
67 -42 83 -42 7 0 15 -3 17 -7 2 -5 23 -19 48 -32 25 -14 47 -27 50 -30 3 -3
21 -15 40 -25 38 -22 49 -30 85 -64 14 -13 25 -19 25 -15 1 4 10 -3 20 -16 11
-13 20 -20 20 -16 0 3 15 -8 33 -26 17 -18 31 -37 29 -42 -1 -4 2 -6 7 -3 5 3
37 -26 72 -65 35 -39 70 -77 77 -85 6 -7 12 -15 12 -19 0 -3 13 -20 30 -38 16
-18 30 -37 30 -43 0 -6 7 -17 15 -24 8 -7 12 -16 9 -21 -3 -5 2 -9 10 -9 9 0
15 -3 14 -7 -3 -13 26 -67 42 -80 8 -7 12 -13 8 -13 -4 0 3 -19 16 -43 13 -23
26 -51 28 -62 1 -11 6 -22 10 -25 3 -3 8 -14 10 -25 1 -11 9 -26 16 -33 10
-12 17 -42 13 -64 0 -5 3 -8 8 -8 5 0 12 -7 15 -16 4 -10 2 -13 -7 -8 -8 5 -7
2 2 -9 8 -10 11 -20 8 -24 -4 -3 -2 -12 3 -18 6 -7 11 -24 12 -39 1 -14 6 -26
10 -26 4 0 8 -5 8 -11 0 -5 -5 -7 -11 -3 -6 3 -4 -7 4 -22 7 -16 13 -46 12
-66 -1 -20 2 -35 7 -32 5 3 7 -6 4 -20 -3 -14 -2 -26 2 -26 4 0 7 -70 7 -155
0 -85 -3 -155 -6 -155 -3 0 -4 -12 -1 -26 3 -16 1 -25 -5 -21 -5 3 -10 0 -10
-8 0 -8 4 -12 9 -9 4 3 8 0 8 -5 0 -6 -4 -11 -9 -11 -5 0 -8 -8 -6 -17 1 -10
-2 -26 -7 -35 -6 -12 -5 -18 3 -18 8 0 8 -4 1 -13 -6 -7 -13 -25 -16 -40 -3
-15 -8 -38 -11 -52 -6 -26 -31 -106 -42 -135 -4 -8 -7 -17 -8 -20 -1 -3 -8
-21 -16 -40 -7 -19 -12 -38 -11 -42 1 -5 -3 -8 -9 -8 -5 0 -7 -4 -4 -10 3 -5
1 -10 -5 -10 -6 0 -8 -4 -5 -10 3 -5 1 -10 -4 -10 -6 0 -10 -3 -9 -7 3 -13
-45 -103 -55 -103 -4 0 -5 -4 -2 -10 3 -5 1 -10 -5 -10 -6 0 -9 -4 -6 -9 3 -5
-1 -12 -10 -15 -9 -4 -14 -9 -11 -12 6 -6 -41 -76 -55 -82 -5 -2 -8 -9 -8 -15
0 -7 -16 -27 -35 -46 -19 -19 -32 -38 -29 -43 3 -4 -2 -8 -10 -8 -9 0 -16 -4
-16 -9 0 -16 -146 -156 -216 -206 -15 -11 -33 -26 -41 -33 -7 -7 -13 -10 -13
-5 0 4 -6 1 -13 -8 -23 -30 -294 -174 -346 -184 -9 -2 -17 -4 -18 -5 -2 -2 -8
-3 -13 -4 -6 0 -15 -8 -20 -16 -8 -12 -10 -12 -10 -1 0 11 -4 11 -22 -1 -13
-8 -33 -14 -45 -13 -13 1 -23 -3 -23 -8 0 -5 -7 -7 -15 -4 -8 4 -17 2 -20 -3
-4 -6 -15 -10 -25 -10 -11 0 -24 -10 -31 -21 -8 -15 -8 -19 0 -15 6 4 11 3 11
-3 0 -5 8 -8 18 -6 9 2 17 4 17 5 0 3 47 10 77 13 14 1 24 5 21 9 -4 8 -2 9
34 13 13 1 30 8 40 16 15 12 16 12 8 -1 -8 -13 -7 -13 8 -1 9 7 17 10 17 7 0
-4 7 0 16 8 8 9 26 16 38 16 13 0 29 7 36 15 7 9 15 13 18 11 2 -3 14 0 26 6
11 7 24 11 29 10 4 -1 7 2 7 6 0 10 50 37 63 34 4 -1 7 2 7 8 0 5 6 10 13 10
8 0 24 9 37 20 13 11 27 20 31 20 8 0 36 21 65 48 8 7 18 10 24 7 5 -3 10 0
10 7 0 7 17 24 37 38 58 38 293 279 274 280 -3 0 1 6 9 13 37 30 185 279 172
291 -3 3 0 6 6 6 7 0 11 6 10 13 -2 6 2 11 8 10 7 -1 10 6 7 17 -3 12 0 20 6
20 7 0 10 4 7 9 -4 5 0 12 6 14 10 4 10 6 1 6 -8 1 -6 13 8 36 11 19 18 39 14
45 -3 5 -1 10 5 10 6 0 8 5 5 10 -3 6 -2 10 2 10 5 0 10 10 10 23 1 22 19 98
31 127 3 8 6 32 7 53 1 22 8 43 16 48 12 8 6 13 -13 10 -3 0 0 12 7 27 14 30
18 382 4 382 -4 0 -6 12 -5 28 2 15 1 32 -2 37 -4 6 -7 19 -7 30 -1 11 -5 31
-8 45 -4 14 -9 39 -10 55 -2 17 -7 37 -12 45 -4 7 -9 23 -10 34 -2 20 -7 37
-25 81 -4 11 -21 52 -36 90 -16 39 -32 73 -37 76 -5 3 -8 8 -6 10 5 9 -13 49
-22 49 -6 0 -7 5 -4 10 3 6 1 10 -5 10 -6 0 -8 4 -5 10 3 5 1 10 -4 10 -6 0
-11 5 -11 10 0 10 -96 159 -109 170 -4 3 -22 25 -41 50 -52 67 -238 250 -255
250 -3 0 -14 8 -24 18 -33 29 -50 42 -56 42 -3 0 -15 9 -27 20 -12 11 -28 20
-35 20 -7 0 -13 3 -13 8 0 4 -15 14 -32 21 -18 8 -39 21 -46 28 -8 7 -18 11
-23 8 -5 -4 -9 -2 -9 2 0 8 -85 49 -85 42 -1 -2 -12 3 -25 12 -32 21 -117 49
-124 41 -3 -3 -6 0 -6 7 0 7 -4 10 -9 6 -5 -3 -13 0 -16 6 -4 5 -13 8 -21 5
-7 -3 -16 -1 -19 5 -4 5 -11 7 -16 4 -5 -4 -9 -2 -9 4 0 5 -9 8 -20 6 -11 -2
-27 3 -35 11 -8 9 -15 11 -15 6 0 -5 -7 -9 -15 -9 -8 0 -15 5 -15 10 0 6 -3 7
-7 4 -3 -4 -12 -2 -20 4 -9 8 -13 8 -13 1 0 -7 -13 -6 -36 4 -20 8 -33 11 -31
7 3 -5 -4 -10 -16 -10 -16 -2 -18 0 -8 7 9 5 -63 8 -177 8 -108 0 -192 -4
-192 -9 0 -5 -5 -9 -11 -9 -5 0 -8 4 -5 8 3 5 -1 9 -9 9 -8 0 -11 -5 -8 -10z"/>
<path d="M1145 3450 c6 -9 4 -12 -7 -8 -8 4 -20 3 -27 -2 -9 -5 -4 -9 13 -12
14 -3 26 -1 26 3 0 5 5 9 11 9 5 0 8 -3 6 -7 -3 -5 15 -8 39 -8 24 0 44 3 44
6 0 10 34 5 42 -6 4 -6 8 -2 8 8 0 16 -6 18 -39 14 -22 -2 -45 1 -52 7 -9 8
-10 8 -5 -2 6 -9 1 -11 -18 -8 -14 3 -31 8 -37 12 -8 5 -9 3 -4 -6z"/>
<path d="M1535 3450 c-4 -6 -11 -8 -16 -5 -12 8 -49 -4 -49 -15 0 -5 7 -7 15
-4 9 4 15 0 15 -7 0 -12 2 -12 9 0 5 7 13 11 19 7 5 -3 15 1 21 8 8 9 8 16 2
20 -5 4 -12 2 -16 -4z"/>
<path d="M1639 3458 c-7 -30 -5 -34 22 -33 16 0 29 3 29 6 0 3 17 3 38 0 33
-6 37 -10 40 -39 2 -18 -3 -41 -10 -50 -9 -11 -10 -14 0 -8 6 4 12 3 12 -3 0
-5 -5 -13 -11 -17 -8 -4 -7 -9 2 -15 8 -5 9 -9 4 -9 -7 0 -11 -30 -10 -77 0
-43 -2 -96 -6 -118 -3 -23 -2 -53 2 -69 7 -23 5 -26 -7 -15 -13 10 -13 8 -5
-13 5 -14 7 -28 4 -32 -3 -3 -7 -45 -9 -93 -5 -105 -12 -207 -15 -210 -2 -4
-6 -37 -8 -68 0 -14 -5 -25 -10 -25 -8 0 -10 53 -14 285 -1 39 -6 73 -12 77
-6 5 -5 8 4 8 11 0 11 3 1 15 -10 12 -10 15 1 15 12 0 12 2 0 9 -9 6 -10 10
-2 16 7 4 8 12 3 18 -10 15 -10 27 2 46 6 9 5 12 -2 7 -7 -4 -10 6 -10 26 1
130 -2 160 -17 154 -10 -3 -18 1 -21 12 -3 9 -10 26 -15 37 -5 11 -10 32 -11
48 -1 15 -5 27 -9 27 -4 0 -9 11 -11 25 -6 27 16 55 25 33 4 -9 6 -8 6 3 1 11
-7 17 -24 17 -30 0 -49 -21 -42 -48 3 -11 0 -20 -6 -20 -7 0 -5 -5 3 -10 13
-9 13 -10 0 -10 -11 0 -12 -2 -3 -8 8 -5 9 -13 3 -22 -5 -9 -5 -19 2 -27 6 -7
7 -13 2 -13 -5 0 -9 -98 -9 -218 0 -119 -3 -225 -8 -234 -4 -10 -4 -18 0 -18
7 0 9 -44 3 -60 -1 -3 -2 -9 -1 -14 6 -32 3 -205 -4 -216 -5 -8 -4 -11 1 -7 9
5 11 -27 4 -58 -1 -5 -1 -14 0 -20 5 -24 -2 -151 -8 -157 -4 -4 -8 73 -7 172
0 99 -4 180 -8 180 -5 0 -5 6 0 13 10 16 13 37 5 37 -4 0 -7 23 -7 50 0 28 5
50 10 50 7 0 7 3 0 8 -13 9 -13 165 0 174 7 5 7 8 0 8 -7 0 -11 48 -11 129 -1
70 -4 140 -8 155 -4 18 -3 25 3 21 7 -4 8 2 2 17 -5 13 -14 22 -21 20 -6 -1
-9 2 -5 8 3 6 11 8 16 5 5 -4 9 -1 9 4 0 16 -27 13 -33 -3 -3 -8 -3 -17 1 -20
9 -9 12 -36 4 -36 -4 0 -7 -35 -7 -78 0 -71 -2 -78 -20 -79 -11 -1 -14 1 -7 4
10 4 10 8 0 21 -10 12 -10 14 0 8 6 -4 12 -2 12 3 0 6 -3 11 -7 11 -5 0 -9 28
-10 63 -1 34 -4 78 -6 97 -2 19 0 40 4 46 5 7 3 11 -6 11 -16 0 -17 -11 -18
-129 -1 -38 -3 -68 -6 -68 -10 0 -6 -95 4 -102 7 -5 7 -8 0 -8 -5 0 -10 -13
-11 -30 -1 -19 3 -27 10 -23 6 4 3 -5 -6 -19 -11 -17 -14 -29 -8 -33 6 -3 10
-11 10 -16 0 -6 -6 -7 -12 -3 -10 6 -10 4 -2 -7 11 -16 12 -58 1 -76 -4 -6 -2
-15 4 -19 8 -4 7 -9 -2 -15 -11 -7 -11 -9 -1 -9 7 0 10 -5 6 -11 -10 -17 -11
-51 -3 -76 5 -14 4 -23 -4 -27 -8 -3 -8 -5 2 -5 11 -1 11 -4 1 -16 -7 -8 -9
-15 -4 -15 5 0 9 -11 9 -25 0 -14 -4 -25 -9 -25 -5 0 -3 -6 3 -14 9 -11 9 -15
-1 -19 -10 -4 -10 -6 1 -6 11 -1 11 -4 1 -16 -7 -9 -8 -15 -2 -15 12 0 10 -33
-3 -42 -6 -5 -5 -8 3 -8 9 0 10 -5 3 -18 -6 -11 -6 -24 0 -35 7 -12 6 -17 -3
-17 -8 0 -9 -3 -3 -8 13 -9 15 -42 3 -42 -6 0 -6 -6 1 -14 9 -11 9 -15 -1 -19
-11 -4 -10 -6 0 -6 7 -1 10 -6 6 -12 -10 -17 -11 -51 -3 -76 5 -14 4 -23 -4
-27 -8 -3 -8 -5 2 -5 11 -1 11 -4 1 -16 -7 -8 -9 -15 -4 -15 5 0 9 -11 9 -25
0 -14 -4 -25 -9 -25 -5 0 -3 -6 3 -14 9 -11 9 -15 -1 -19 -10 -4 -10 -6 1 -6
11 -1 11 -4 1 -16 -9 -11 -9 -15 -1 -15 7 0 9 -5 6 -11 -10 -15 -12 -78 -4
-91 4 -6 3 -21 -1 -33 -5 -14 -4 -27 3 -34 8 -8 8 -11 -1 -11 -14 0 -12 -21 3
-32 7 -5 7 -11 0 -15 -12 -9 -14 -103 -2 -103 5 0 5 -5 1 -12 -11 -17 -11 -58
-1 -58 5 0 4 -6 -2 -13 -6 -8 -8 -17 -4 -21 9 -8 12 -46 4 -46 -3 0 -6 -11 -6
-25 0 -14 4 -25 9 -25 5 0 3 -7 -4 -15 -7 -8 -8 -15 -3 -15 5 0 9 -9 9 -20 0
-11 -4 -20 -8 -20 -5 0 -4 -9 2 -20 6 -11 7 -20 3 -20 -4 0 -8 -11 -8 -25 0
-14 4 -25 9 -25 5 0 3 -7 -4 -15 -7 -8 -8 -15 -3 -15 5 0 9 -9 9 -20 0 -11 -4
-20 -8 -20 -5 0 -4 -9 2 -20 6 -11 7 -20 3 -20 -4 0 -8 -11 -8 -25 0 -14 4
-25 9 -25 5 0 3 -7 -4 -15 -7 -8 -8 -15 -3 -15 5 0 9 -9 9 -20 0 -11 -4 -20
-8 -20 -5 0 -4 -9 2 -20 6 -11 7 -20 3 -20 -4 0 -8 -11 -8 -25 0 -14 4 -25 9
-25 5 0 3 -7 -4 -15 -7 -8 -8 -15 -3 -15 5 0 9 -9 9 -20 0 -11 -4 -20 -8 -20
-5 0 -4 -9 2 -20 6 -11 7 -20 3 -20 -4 0 -8 -11 -8 -25 0 -14 4 -25 9 -25 5 0
3 -7 -4 -15 -7 -8 -8 -15 -3 -15 5 0 9 -9 9 -20 0 -11 -4 -20 -8 -20 -5 0 -4
-9 2 -20 6 -11 7 -20 3 -20 -4 0 -8 -11 -8 -25 0 -14 4 -25 9 -25 5 0 3 -7 -4
-15 -8 -10 -9 -15 -1 -15 6 0 8 -8 3 -22 -9 -26 -8 -75 1 -84 4 -4 2 -15 -4
-25 -5 -11 -6 -19 -2 -19 5 0 9 -14 9 -30 1 -17 -3 -30 -8 -30 -6 0 -6 -6 1
-14 9 -10 9 -16 1 -21 -7 -4 -7 -11 -2 -18 5 -7 8 -28 8 -47 -1 -19 2 -45 6
-57 4 -13 3 -23 -2 -23 -5 0 -7 -6 -4 -13 2 -7 6 -65 8 -128 5 -139 4 -129 17
-129 5 0 7 5 4 10 -4 6 -2 16 4 23 5 7 6 19 2 26 -9 14 0 69 15 92 12 19 12
33 -1 41 -6 5 -6 8 2 8 7 0 10 9 8 21 -3 12 -1 18 3 15 4 -4 7 -38 8 -74 1
-37 5 -80 9 -95 l7 -28 12 23 c9 16 9 25 2 30 -7 5 -6 8 2 8 7 0 11 4 7 9 -3
5 -1 12 5 16 6 4 8 10 5 15 -3 5 1 22 9 38 8 16 12 33 8 37 -4 4 -1 6 7 3 8
-2 16 -20 18 -42 3 -39 27 -74 38 -56 3 5 3 10 -1 10 -4 0 1 9 11 20 14 15 15
20 4 20 -9 0 -10 3 -4 8 6 4 11 15 12 25 0 9 1 28 2 42 0 14 7 25 15 25 18 0
27 25 14 38 -6 6 -7 16 -2 24 5 7 9 31 10 53 2 82 4 98 11 91 6 -6 11 -34 16
-96 1 -14 6 -28 10 -31 4 -3 9 -15 10 -27 1 -23 29 -40 35 -23 10 29 20 4 21
-51 4 -120 6 -143 16 -140 6 2 9 12 8 23 -2 10 2 19 8 19 5 0 7 6 3 13 -6 9
-4 9 7 -1 24 -22 44 -14 44 18 0 17 -4 30 -10 30 -5 0 -4 5 3 12 16 16 15 31
0 22 -10 -5 -10 -4 -1 6 8 9 9 19 3 31 -6 10 -6 20 -2 23 5 3 9 -1 10 -9 1 -8
3 -22 4 -30 1 -8 4 -15 8 -15 3 0 7 -14 8 -32 2 -18 8 -35 14 -39 6 -4 8 -14
5 -23 -4 -9 -3 -16 2 -16 5 0 12 -12 16 -27 6 -27 7 -27 21 -8 8 11 11 21 5
23 -5 2 -7 11 -5 20 2 9 5 33 8 52 2 19 9 48 15 64 10 24 14 26 26 16 9 -7 17
-11 20 -8 6 6 7 57 2 91 -2 15 0 27 5 27 5 0 6 5 3 11 -4 6 -8 78 -9 160 -1
82 -5 151 -8 154 -3 3 -2 22 2 41 5 19 4 37 -1 40 -5 3 -6 11 -2 17 11 17 11
30 1 44 -5 6 -4 14 3 18 8 6 8 10 -2 15 -10 7 -10 11 0 24 8 9 9 16 4 16 -5 0
-10 7 -10 15 0 8 5 15 11 15 7 0 7 3 1 8 -13 9 -15 52 -2 52 5 0 4 7 -3 15 -7
8 -8 15 -4 15 14 0 12 1193 -1 1202 -7 5 -7 8 0 8 6 0 11 9 11 20 0 11 -3 20
-7 20 -10 0 -5 34 6 42 6 5 5 8 -3 8 -9 0 -10 5 -2 19 7 14 7 22 0 26 -6 4 -7
12 -3 18 10 17 11 47 1 41 -9 -6 -6 25 5 42 3 6 3 14 0 18 -12 12 -12 40 0 48
8 5 8 8 1 8 -7 0 -12 21 -13 51 0 28 -3 55 -6 60 -4 5 -1 9 5 9 6 0 8 5 4 11
-4 7 -8 80 -9 164 -1 83 -5 156 -8 162 -4 7 -3 14 3 18 6 4 7 12 3 18 -11 18
-10 51 2 59 7 5 6 8 -1 8 -6 0 -12 26 -13 63 -4 87 -8 140 -12 157 -3 13 14
15 121 13 69 -1 136 -4 150 -7 14 -3 40 -8 59 -11 19 -3 38 -10 42 -16 3 -6 9
-10 13 -8 12 4 76 -24 76 -33 0 -5 5 -6 10 -3 6 3 10 1 10 -4 0 -6 7 -11 15
-11 8 0 15 -3 15 -8 0 -4 18 -18 39 -32 22 -13 38 -28 35 -32 -3 -4 0 -8 6 -8
13 0 77 -60 64 -60 -5 0 -2 -5 7 -10 16 -9 92 -116 95 -132 1 -5 2 -13 3 -19
0 -5 7 -7 14 -3 6 4 9 4 5 0 -3 -4 2 -28 12 -52 11 -24 17 -44 13 -44 -3 0 -1
-6 5 -12 9 -12 22 -65 26 -113 1 -11 4 -24 7 -30 2 -5 4 -27 4 -47 -1 -21 3
-38 7 -38 11 0 10 -25 12 380 1 244 -2 367 -9 372 -5 4 -108 7 -228 8 -120 0
-223 2 -228 5 -5 4 -9 3 -9 -2 0 -4 -57 -7 -127 -6 -88 2 -131 -1 -142 -10
-12 -10 -14 -9 -8 6 5 13 3 16 -6 10 -16 -10 -129 -11 -142 -2 -7 5 -11 0 -12
-11 -1 -13 3 -17 14 -13 12 5 14 1 8 -15 -4 -14 -2 -22 6 -22 8 0 8 -4 2 -12
-6 -7 -9 -34 -9 -60 1 -27 -1 -48 -5 -48 -4 0 -4 -13 1 -30 5 -16 5 -30 1 -30
-11 0 -8 -44 4 -52 6 -5 6 -8 -1 -8 -7 0 -10 -13 -8 -30 2 -19 -1 -30 -9 -30
-8 0 -8 -3 -2 -8 16 -10 17 -54 2 -45 -9 5 -9 3 -1 -8 14 -17 15 -50 2 -66 -5
-6 -5 -13 -1 -16 10 -6 10 -168 0 -185 -5 -6 -4 -12 1 -12 10 0 8 -42 -3 -59
-3 -6 -1 -11 6 -11 8 0 8 -4 -1 -15 -7 -8 -8 -15 -4 -15 11 0 11 -91 0 -108
-4 -7 -4 -12 1 -12 9 0 8 -242 -1 -265 -3 -8 -1 -15 5 -15 6 0 6 -7 -1 -19 -7
-14 -7 -22 0 -26 6 -4 7 -12 3 -18 -9 -15 -13 -58 -5 -53 4 2 7 -11 7 -30 0
-19 -3 -34 -7 -34 -7 0 -1 -47 8 -62 3 -4 1 -8 -3 -8 -5 0 -9 -11 -9 -25 0
-14 3 -25 8 -25 4 0 3 -11 -2 -25 -6 -15 -6 -27 0 -30 6 -3 6 -15 0 -29 -5
-15 -5 -27 3 -35 6 -6 7 -11 1 -11 -6 0 -9 -49 -9 -130 1 -72 -1 -128 -3 -125
-11 11 -9 310 2 317 8 6 8 8 -1 8 -8 0 -11 37 -12 123 -1 67 -2 153 -4 190 -1
38 1 71 4 73 4 2 3 19 -2 37 -11 39 -11 40 0 32 6 -3 6 7 0 27 -6 21 -6 34 1
36 5 2 6 11 2 20 -4 9 -7 49 -7 87 0 39 -4 73 -10 77 -6 5 -5 8 3 8 9 0 10 5
3 18 -13 24 -20 102 -10 102 5 0 4 11 -1 25 -5 13 -6 27 -1 29 5 3 7 17 6 31
-2 14 1 27 6 31 5 3 6 13 1 22 -4 9 -7 28 -7 42 1 27 -15 51 -27 43 -5 -2 -8
2 -9 9 0 7 -2 23 -3 36 -2 12 0 22 4 22 3 0 6 15 5 33 0 17 3 51 6 75 3 23 3
42 -1 42 -3 0 -5 14 -4 31 1 17 -2 44 -6 60 -6 20 -5 29 3 29 7 0 4 5 -6 11
-9 6 -15 14 -13 18 3 4 0 25 -5 47 -17 65 -18 85 -6 77 20 -12 57 -12 57 0 0
7 4 6 10 -3 8 -13 10 -12 10 4 0 11 -5 16 -14 13 -7 -3 -19 0 -26 6 -10 9 -11
9 -6 -1 6 -9 -2 -11 -29 -6 -28 4 -35 3 -30 -7 6 -9 4 -10 -6 -3 -8 5 -39 9
-69 9 -30 1 -61 4 -68 9 -6 4 -12 6 -13 4z m-169 -372 c0 -3 -4 -8 -10 -11 -5
-3 -10 -1 -10 4 0 6 5 11 10 11 6 0 10 -2 10 -4z m70 -826 c-11 -7 -11 -10 -2
-10 8 0 10 -5 6 -12 -10 -16 -11 -68 -1 -68 5 0 6 -4 2 -9 -9 -16 -13 -71 -4
-77 9 -5 1 -34 -10 -34 -3 0 -6 50 -7 110 0 94 2 110 15 110 14 0 14 -1 1 -10z
m-2 -285 c0 -36 -3 -67 -7 -69 -3 -2 -6 27 -6 65 0 38 3 69 6 69 4 0 7 -29 7
-65z m2 -95 c0 -5 -2 -10 -4 -10 -3 0 -8 5 -11 10 -3 6 -1 10 4 10 6 0 11 -4
11 -10z m-6 -50 c-6 -6 -10 -3 -10 10 0 13 4 16 10 10 7 -7 7 -13 0 -20z m6
-30 c0 -5 -2 -10 -4 -10 -3 0 -8 5 -11 10 -3 6 -1 10 4 10 6 0 11 -4 11 -10z
m-3 -55 c0 -8 -4 -12 -9 -9 -5 3 -6 10 -3 15 9 13 12 11 12 -6z m0 -74 c0 -11
-5 -18 -9 -15 -4 3 -5 11 -1 19 7 21 12 19 10 -4z m3 -66 c0 -5 -5 -3 -10 5
-5 8 -10 20 -10 25 0 6 5 3 10 -5 5 -8 10 -19 10 -25z"/>
<path d="M1330 3437 c0 -7 11 -12 25 -12 22 0 37 14 18 16 -5 0 -16 2 -25 4
-10 2 -18 -2 -18 -8z"/>
<path d="M1390 3435 c0 -14 38 -17 46 -3 4 6 10 5 15 -3 7 -11 9 -11 9 2 0 13
-9 16 -35 16 -19 -1 -35 -6 -35 -12z"/>
<path d="M1491 3386 c-9 -10 -9 -16 -1 -21 6 -4 14 -4 17 -1 4 3 1 6 -7 6 -10
0 -10 3 0 15 7 8 10 15 7 15 -2 0 -10 -6 -16 -14z"/>
<path d="M2461 2998 c-12 -19 -11 -20 5 -14 16 6 16 5 3 -11 -8 -10 -15 -25
-14 -33 0 -8 -4 -18 -10 -22 -6 -5 -6 -8 2 -8 9 0 10 -7 3 -26 -6 -14 -8 -30
-4 -35 3 -5 0 -9 -5 -9 -6 0 -10 -3 -10 -7 4 -22 -3 -43 -16 -57 -9 -8 -15
-19 -14 -23 3 -20 -2 -34 -11 -28 -5 3 -10 -1 -10 -10 0 -39 -145 -156 -197
-159 -13 0 -23 -5 -23 -10 0 -5 -3 -6 -6 -3 -4 3 -16 2 -27 -4 -12 -7 -17 -7
-13 -1 4 6 -2 8 -14 5 -11 -3 -17 -9 -14 -14 3 -5 -1 -9 -8 -9 -22 -1 24 -23
52 -25 15 -1 34 -6 41 -11 8 -5 19 -9 24 -9 11 -1 47 -18 80 -38 30 -17 84
-75 77 -81 -3 -3 -1 -6 5 -6 6 0 16 -13 23 -30 7 -16 16 -30 21 -30 5 0 9 -9
9 -20 0 -11 4 -20 8 -20 4 0 8 -10 9 -22 1 -11 6 -24 10 -27 8 -6 10 -21 14
-88 1 -18 6 -30 10 -27 4 2 7 -5 6 -16 -1 -11 -5 -20 -9 -20 -4 0 -5 -6 -2
-14 3 -8 11 -13 18 -10 15 6 16 105 1 116 -7 5 -6 8 1 8 6 0 10 18 10 39 0 23
-4 37 -10 34 -5 -4 -6 -1 0 8 11 19 13 78 3 85 -5 3 -6 11 -2 17 12 19 13 58
1 51 -7 -5 -8 -2 -2 7 11 19 13 78 3 85 -5 3 -6 11 -2 17 12 19 13 58 1 51 -7
-5 -8 -2 -2 7 11 19 13 78 3 85 -5 3 -6 11 -2 17 12 19 13 58 1 51 -7 -5 -8
-2 -2 7 11 19 13 78 3 85 -5 3 -6 11 -2 17 13 21 13 58 0 50 -9 -5 -9 -3 -2 8
12 17 13 39 1 58 -6 9 -5 12 1 8 10 -6 13 67 3 77 -3 3 -12 -4 -19 -16z"/>
<path d="M2900 2329 c0 -5 -3 -8 -7 -6 -5 3 -8 -27 -7 -66 0 -40 -2 -76 -5
-82 -3 -5 -6 -21 -7 -35 -2 -43 -15 -111 -25 -137 -5 -14 -7 -29 -3 -34 3 -5
0 -9 -6 -9 -6 0 -8 -4 -5 -10 3 -5 2 -10 -3 -10 -5 0 -9 -8 -9 -17 1 -22 -68
-165 -76 -157 -3 3 -8 -4 -12 -16 -4 -11 -17 -32 -31 -45 -13 -13 -24 -29 -24
-35 0 -6 -4 -8 -10 -5 -5 3 -15 -3 -22 -15 -7 -11 -17 -20 -23 -20 -6 0 -18
-9 -28 -20 -10 -12 -21 -18 -26 -15 -5 2 -11 -2 -15 -10 -3 -8 -12 -15 -21
-15 -8 0 -15 -5 -15 -11 0 -5 -4 -7 -10 -4 -5 3 -10 1 -10 -5 0 -6 -4 -8 -10
-5 -5 3 -10 1 -10 -4 0 -6 -3 -10 -7 -9 -9 2 -60 -18 -87 -33 -14 -8 -16 -8
-11 2 6 8 4 10 -6 4 -12 -8 -36 -11 -92 -14 -12 -1 -16 -5 -11 -13 6 -10 5
-10 -7 -1 -12 9 -79 12 -99 3 -14 -6 -36 -4 -42 5 -4 5 -6 0 -6 -11 2 -17 8
-21 30 -20 15 0 28 5 28 11 0 5 5 3 10 -5 8 -13 10 -12 10 3 0 9 4 17 10 17 5
0 7 -7 4 -15 -4 -8 -1 -15 5 -15 6 0 11 8 11 18 0 14 2 15 10 2 10 -16 38 -20
57 -7 7 5 21 4 32 -3 16 -8 21 -8 21 2 0 10 2 10 9 -1 6 -9 10 -10 16 -2 5 9
11 9 22 0 12 -10 16 -10 24 2 5 8 9 9 9 2 0 -12 24 -12 36 0 4 4 13 2 20 -4 8
-7 14 -7 19 1 5 8 10 8 20 0 10 -8 15 -8 20 0 5 8 10 8 20 0 10 -8 15 -8 20 0
5 8 10 8 20 0 10 -8 15 -8 20 0 5 8 10 8 20 0 10 -8 15 -8 20 0 5 8 10 8 20 0
9 -8 15 -8 20 0 4 6 13 7 23 2 19 -9 54 -8 70 2 6 3 14 1 18 -5 4 -8 9 -7 15
2 7 12 9 12 9 0 0 -11 3 -11 17 0 14 12 15 12 9 1 -7 -11 -4 -12 13 -3 13 7
21 8 21 2 0 -6 6 -8 13 -5 8 3 13 19 12 40 -1 19 2 37 7 40 5 3 5 11 0 17 -10
15 -10 27 2 46 6 9 5 12 -2 7 -7 -4 -10 8 -9 38 1 28 5 42 12 38 5 -3 4 2 -4
11 -11 14 -11 17 0 17 10 0 10 3 3 8 -15 9 -14 113 1 104 5 -3 5 1 -2 9 -14
18 -13 100 1 91 6 -3 5 2 -3 11 -11 14 -11 17 0 17 10 0 11 2 2 8 -14 9 -13
104 2 114 6 5 6 8 -2 8 -15 0 -13 80 2 80 6 0 6 3 -1 8 -10 7 -13 30 -14 125
-1 26 -3 47 -5 47 -3 0 -5 -5 -5 -11z"/>
<path d="M2915 2300 c-3 -5 -1 -10 4 -10 6 0 11 5 11 10 0 6 -2 10 -4 10 -3 0
-8 -4 -11 -10z"/>
<path d="M1985 313 c4 -10 7 -28 6 -40 0 -13 3 -23 7 -23 15 0 10 69 -5 75
-11 4 -13 1 -8 -12z"/>
<path d="M1990 224 c0 -8 5 -12 10 -9 6 3 10 10 10 16 0 5 -4 9 -10 9 -5 0
-10 -7 -10 -16z"/>
<path d="M1986 183 c-6 -14 -5 -15 5 -6 7 7 10 15 7 18 -3 3 -9 -2 -12 -12z"/>
<path d="M1986 118 c3 -5 10 -6 15 -3 13 9 11 12 -6 12 -8 0 -12 -4 -9 -9z"/>
<path d="M1420 40 c0 -5 5 -10 11 -10 5 0 7 5 4 10 -3 6 -8 10 -11 10 -2 0 -4
-4 -4 -10z"/>
</g>
</svg>
